<?xml version="1.0" encoding="UTF-8"?>
<svg width="30px" height="30px" viewBox="0 0 30 30" version="1.1" xmlns="http://www.w3.org/2000/svg" xmlns:xlink="http://www.w3.org/1999/xlink">
    <title>architect@1x</title>
    <defs>
        <circle id="path-1" cx="15" cy="15" r="15"></circle>
    </defs>
    <g id="Symbols" stroke="none" stroke-width="1" fill="none" fill-rule="evenodd">
        <g id="Header" transform="translate(-1263.000000, -18.000000)">
            <g id="architect" transform="translate(1263.000000, 18.000000)">
                <mask id="mask-2" fill="white">
                    <use xlink:href="#path-1"></use>
                </mask>
                <use id="Mask" fill="#E4EBF2" xlink:href="#path-1"></use>
                <g mask="url(#mask-2)">
                    <g transform="translate(6.000000, 6.000000)">
                        <path d="M18.5937838,26.6452529 L0.0139089547,26.6452529 L0.0139089547,24.0595527 C0.0139089547,20.9968432 2.49654597,18.5142062 5.5592554,18.5142062 L13.0484373,18.5142062 C16.1109187,18.5142062 18.5937838,20.9968432 18.5937838,24.0595527 L18.5937838,26.6452529 Z" id="Path" fill="#2693F0" fill-rule="nonzero"></path>
                        <path d="M2.98495603,25.3478425 C2.98495603,22.2301812 5.51251216,19.702625 8.63040141,19.702625 L15.9196134,19.702625 C16.0967818,19.702625 16.271898,19.7112897 16.444962,19.7272508 C15.483419,18.9675018 14.2690064,18.5142062 12.9485664,18.5142062 L5.65912639,18.5142062 C2.54123708,18.5142062 0.0139089547,21.0417623 0.0139089547,24.1594237 L0.0139089547,26.6452529 L2.98495603,26.6452529 L2.98495603,25.3478425 Z" id="Path" fill="#1881DA" fill-rule="nonzero"></path>
                        <path d="M9.34933556,21.9310244 L9.2581292,21.9310244 C7.86130383,21.9310244 6.72874895,20.7984694 6.72874895,19.4016441 L6.72874895,13.215573 L11.8789438,13.215573 L11.8789438,19.4016441 C11.8789438,20.7984694 10.7463889,21.9310244 9.34933556,21.9310244 L9.34933556,21.9310244 Z" id="Path" fill="#FFEACF" fill-rule="nonzero"></path>
                        <path d="M13.430592,24.3888076 L13.3936534,24.3828792 C12.8258938,24.2919009 12.4394069,23.7578876 12.5303852,23.1903561 L13.3439459,18.1094781 C13.3747281,17.9186287 13.5541766,17.7884317 13.7452539,17.8192138 L15.1464116,18.0435814 C15.3374888,18.0741356 15.4674579,18.2538121 15.4369038,18.4446614 L14.6231151,23.5253115 C14.5321367,24.093071 13.9983515,24.479558 13.430592,24.3888076 L13.430592,24.3888076 Z" id="Path" fill="#FFDA5F" fill-rule="nonzero"></path>
                        <path d="M15.9741092,26.6452529 L2.6333555,26.6452529 L2.6333555,24.049292 C2.6333555,23.404463 3.15619592,22.8818506 3.80079686,22.8818506 L14.8066678,22.8818506 C15.4514968,22.8818506 15.9741092,23.404463 15.9741092,24.049292 L15.9741092,26.6452529 Z" id="Path" fill="#FFC400" fill-rule="nonzero"></path>
                        <path d="M9.10581459,19.3560409 L9.10581459,13.215573 L6.72874895,13.215573 L6.72874895,19.3560409 C6.72874895,20.778176 7.88159729,21.9310244 9.30373238,21.9310244 C9.73263026,21.9310244 10.1366744,21.825681 10.4921512,21.640076 C9.66855781,21.2107222 9.10581459,20.3492781 9.10581459,19.3560409 L9.10581459,19.3560409 Z" id="Path" fill="#FFD59A" fill-rule="nonzero"></path>
                        <path d="M4.27142166,11.8654909 L6.29301057,11.8654909 L6.29301057,6.37783248 C6.29301057,5.73300354 5.77039815,5.21039112 5.12556921,5.21039112 L4.27142166,5.21039112 C3.62659272,5.21039112 3.1039803,5.73300354 3.1039803,6.37783248 L3.1039803,10.6980496 C3.1039803,11.3428784 3.62659272,11.8654909 4.27142166,11.8654909 Z" id="Path" fill="#A56021" fill-rule="nonzero"></path>
                        <path d="M14.3152936,5.21267125 L13.503101,5.21267125 C12.8468713,5.21267125 12.3146822,5.63837693 12.3146822,6.16349754 L12.3146822,6.99142325 C13.6009198,7.75664452 14.4340899,8.98177394 14.4340899,10.3626382 L14.4340899,11.8632107 C15.0346837,11.8155554 15.5037124,11.4101431 15.5037124,10.9171728 L15.5037124,6.16349754 C15.5037124,5.63837693 14.9715233,5.21267125 14.3152936,5.21267125 Z" id="Path" fill="#A56021" fill-rule="nonzero"></path>
                        <path d="M16.2506925,10.4378834 C16.2506925,11.3754847 15.4904875,12.1356897 14.5528862,12.1356897 C13.6152848,12.1356897 12.8550798,11.3754847 12.8550798,10.4378834 C12.8550798,9.50028205 13.6152848,8.7400771 14.5528862,8.7400771 C15.4904875,8.7400771 16.2506925,9.50028205 16.2506925,10.4378834 Z" id="Path" fill="#FFEACF" fill-rule="nonzero"></path>
                        <path d="M5.55423908,10.4378834 C5.55423908,11.3754847 4.79426208,12.1356897 3.85666074,12.1356897 C2.9188314,12.1356897 2.15885445,11.3754847 2.15885445,10.4378834 C2.15885445,9.50028205 2.9188314,8.7400771 3.85666074,8.7400771 C4.79426208,8.7400771 5.55423908,9.50028205 5.55423908,10.4378834 Z" id="Path" fill="#FFD59A" fill-rule="nonzero"></path>
                        <path d="M9.39676286,16.4821286 L9.2109299,16.4821286 C6.36323946,16.4821286 4.05480659,14.1734677 4.05480659,11.3257773 L4.05480659,8.4678261 C4.05480659,5.62013566 6.36323946,3.31147479 9.2109299,3.31147479 L9.39676286,3.31147479 C12.2444533,3.31147479 14.5528862,5.62013566 14.5528862,8.4678261 L14.5528862,11.3257773 C14.5528862,14.1734677 12.2444533,16.4821286 9.39676286,16.4821286 Z" id="Path" fill="#FFEACF" fill-rule="nonzero"></path>
                        <path d="M6.43164423,11.2329748 L6.43164423,8.56062858 C6.43164423,6.07046706 8.16570506,3.98526176 10.4923792,3.4466882 C10.1104526,3.35821803 9.71256486,3.31147479 9.30396038,3.31147479 C6.40496633,3.31147479 4.05480659,5.66163458 4.05480659,8.56062858 L4.05480659,11.2329748 C4.05480659,14.1319688 6.40496633,16.4821286 9.30396038,16.4821286 C9.71256486,16.4821286 10.1104526,16.4353854 10.4923792,16.3469152 C8.16570506,15.8083416 6.43164423,13.7231363 6.43164423,11.2329748 L6.43164423,11.2329748 Z" id="Path" fill="#FFD59A" fill-rule="nonzero"></path>
                        <path d="M15.4330275,8.38528438 C15.5716612,7.85286726 15.6457663,7.29354429 15.6457663,6.71666406 C15.6457663,3.13795465 12.8062845,0.236908524 9.30373238,0.236908524 C5.80118025,0.236908524 2.96169838,3.13795465 2.96169838,6.71666406 C2.96169838,7.29354429 3.03603159,7.85286726 3.17443719,8.38528438 L15.4330275,8.38528438 Z" id="Path" fill="#FFCF32" fill-rule="nonzero"></path>
                        <path d="M6.19883996,22.8818506 L3.82200232,22.8818506 C3.16554462,22.8818506 2.6333555,23.4138117 2.6333555,24.0702694 L2.6333555,26.6452529 L5.0104212,26.6452529 L5.0104212,24.0702694 C5.0104212,23.4138117 5.54261026,22.8818506 6.19883996,22.8818506 Z" id="Path" fill="#8C4C17" fill-rule="nonzero"></path>
                        <path d="M5.19990236,24.3888076 L5.23706897,24.3828792 C5.8046005,24.2919009 6.19108745,23.7578876 6.1003371,23.1903561 L5.2865484,18.1094781 C5.2559943,17.9186287 5.07631778,17.7884317 4.88546843,17.8192138 L3.4843108,18.0435814 C3.29323352,18.0741356 3.16326443,18.2538121 3.19381859,18.4446614 L4.00737928,23.5253115 C4.09835764,24.093071 4.63237082,24.479558 5.19990236,24.3888076 L5.19990236,24.3888076 Z" id="Path" fill="#FFDA5F" fill-rule="nonzero"></path>
                        <path d="M5.19306191,23.5068422 L4.38337747,18.4510458 C4.35213931,18.2565483 4.48438853,18.0736795 4.67888607,18.0424414 L5.2190557,17.9560233 C5.14198635,17.8550123 5.01338539,17.7986924 4.87908405,17.8201259 L3.49046725,18.0424414 C3.29596971,18.0736795 3.16372049,18.2565483 3.19473065,18.4510458 L4.00464309,23.5068422 C4.09721752,24.0848624 4.6405794,24.4781898 5.21859969,24.3856154 C5.37684269,24.3603056 5.52072073,24.3001094 5.64521744,24.2155155 C5.41172917,24.0572725 5.24117322,23.8073671 5.19306191,23.5068422 L5.19306191,23.5068422 Z" id="Path" fill="#FFC400" fill-rule="nonzero"></path>
                        <path d="M13.7217683,23.7660963 L14.5314527,18.7100719 C14.5626909,18.5155743 14.7455596,18.3833251 14.9400571,18.4143353 L15.4291513,18.4927728 L15.4357637,18.4510458 C15.4670019,18.2565483 15.3345246,18.0736795 15.1402551,18.0426694 L13.7516384,17.8201259 C13.5571408,17.7891157 13.3742721,17.9213649 13.3430339,18.1158624 L12.5333494,23.1718868 C12.440775,23.7496791 12.8343304,24.293269 13.4121227,24.3858434 C13.5466521,24.4072769 13.6791293,24.4015765 13.8045381,24.3742146 C13.7204001,24.1904338 13.6873379,23.9806592 13.7217683,23.7660963 L13.7217683,23.7660963 Z" id="Path" fill="#FFC400" fill-rule="nonzero"></path>
                        <g id="Group" stroke-width="1" fill="none" fill-rule="evenodd" transform="translate(2.918603, 0.233488)">
                            <path d="M7.57354781,0.117428198 C7.18865698,0.0428669874 6.79145327,0.00342025295 6.38512899,0.00342025295 C2.88257685,0.00342025295 0.0430949886,2.90446638 0.0430949886,6.48317579 C0.0430949886,7.06005602 0.117428198,7.61937899 0.2558338,8.1517961 L2.6328995,8.1517961 C2.49426584,7.61937899 2.42016069,7.06005602 2.42016069,6.48317579 C2.42016069,3.31945536 4.63921127,0.685871798 7.57354781,0.117428198 Z" id="Path" fill="#FFDF74" fill-rule="nonzero"></path>
                            <path d="M6.38512899,0.00342025295 C5.40853691,0.00342025295 4.48347646,0.229155955 3.65714688,0.632060048 C3.55180351,0.705025132 3.44737226,0.780042346 3.34522114,0.859391875 L3.34499314,0.859391875 C3.0941756,1.05434548 3.04469617,1.41392652 3.23417739,1.66907632 L7.56739136,7.50696717 L11.3426504,2.44227821 C10.1806815,0.955842612 8.39189682,0.00342025295 6.38512899,0.00342025295 Z" id="Path" fill="#FFC400" fill-rule="nonzero"></path>
                            <path d="M7.57354781,0.117428198 C7.18865698,0.0428669874 6.79145327,0.00342025295 6.38512899,0.00342025295 C2.88257685,0.00342025295 0.0430949886,2.90446638 0.0430949886,6.48317579 C0.0430949886,7.06005602 0.117428198,7.61937899 0.2558338,8.1517961 L2.6328995,8.1517961 C2.49426584,7.61937899 2.42016069,7.06005602 2.42016069,6.48317579 C2.42016069,3.31945536 4.63921127,0.685871798 7.57354781,0.117428198 Z" id="Path" fill="#FFC400" fill-rule="nonzero"></path>
                        </g>
                        <path d="M4.96436196,2.25895344 C4.77488074,2.00403164 4.82413217,1.6442226 5.07517765,1.449497 C6.29711482,0.501178956 7.75755664,0 9.298488,0 C10.8446637,0 12.3089818,0.504371149 13.5331991,1.45838963 C13.7837886,1.65357124 13.832356,2.01338034 13.6424187,2.26807407 L9.29734794,8.09707229 L4.96436196,2.25895344 Z" id="Path" fill="#FFCF32" fill-rule="nonzero"></path>
                        <path d="M6.85780591,1.449497 L6.85803391,1.449497 C7.81570065,0.706165197 8.92043763,0.238960653 10.0954036,0.0711409577 L9.56139031,0.00547238136 C9.47406027,0.0022801589 9.38650216,0 9.298488,0 C7.75755664,0 6.29711482,0.501406957 5.07517765,1.449497 C4.82413217,1.6444506 4.77488074,2.00403164 4.96436196,2.25918144 L6.16418155,3.87558607 C6.16418155,3.87558607 6.79555759,2.95827819 7.05161945,2.66961004 L6.74699022,2.25918144 C6.557737,2.00380364 6.60698843,1.6442226 6.85780591,1.449497 Z" id="Path" fill="#FFC400" fill-rule="nonzero"></path>
                        <path d="M16.1280199,8.38528438 L2.47967282,8.38528438 C2.09295787,8.38528438 1.77920801,8.07176251 1.77920801,7.68481956 L1.77920801,6.84822922 C1.77920801,6.46128627 2.09295787,6.1477644 2.47967282,6.1477644 L16.1280199,6.1477644 C16.5147349,6.1477644 16.8284848,6.46128627 16.8284848,6.84822922 L16.8284848,7.68481956 C16.8284848,8.07176251 16.5147349,8.38528438 16.1280199,8.38528438 Z" id="Path" fill="#FFDA5F" fill-rule="nonzero"></path>
                        <path d="M5.46348873,7.19686556 C5.06970527,7.19686556 4.75048303,6.87764331 4.75048303,6.48385985 L4.75048303,6.1477644 L2.49221365,6.1477644 C2.09843025,6.1477644 1.77920801,6.46698665 1.77920801,6.8607701 L1.77920801,7.67227867 C1.77920801,8.06606213 2.09843025,8.38528438 2.49221365,8.38528438 L16.1152511,8.38528438 C16.5090345,8.38528438 16.8282568,8.06606213 16.8282568,7.67227867 L16.8282568,7.19686556 L5.46348873,7.19686556 Z" id="Path" fill="#FFC400" fill-rule="nonzero"></path>
                        <path d="M17.7398643,26.0330302 C17.5483309,26.0330302 17.391912,25.8788915 17.3898599,25.6869021 L17.3720746,24.1060679 C17.3718466,24.0939831 17.3723026,24.0816703 17.3734427,24.0695854 C17.506376,22.642662 16.7849337,22.1916465 16.7541516,22.1729492 C16.5854198,22.0785506 16.5275038,21.8664959 16.6221304,21.6975361 C16.7165289,21.5288043 16.932232,21.4699762 17.1009638,21.5643748 C17.147707,21.5905966 18.2414992,22.2258489 18.0725395,24.1161006 L18.0900967,25.6789216 C18.0923769,25.872279 17.937326,26.0309781 17.7439686,26.0330302 C17.7426004,26.0330302 17.7412324,26.0330302 17.7398643,26.0330302 L17.7398643,26.0330302 Z" id="Path" fill="#FFD551" fill-rule="nonzero"></path>
                        <path d="M14.7118132,6.19883996 C14.7006405,6.19883996 14.6892397,6.19838396 14.6776109,6.19724389 C14.4851655,6.17877456 14.3442516,6.00753467 14.362721,5.81508926 C14.4587156,4.82116798 13.8102384,4.35692763 13.7824205,4.33777429 C13.6218973,4.22992279 13.5801704,4.01330767 13.6880219,3.85255648 C13.7956454,3.69203329 14.0143127,3.64985037 14.1752919,3.75770187 C14.2170188,3.78574784 15.1972591,4.46067487 15.0599935,5.88235396 C15.0424363,6.06339855 14.8901217,6.19883996 14.7118132,6.19883996 Z" id="Path" fill="#FFF4C1" fill-rule="nonzero"></path>
                        <path d="M12.8555359,2.28791141 C12.7470003,2.28791141 12.6400609,2.23774798 12.5714281,2.14312137 C11.8864683,1.19731145 10.088335,1.05548554 10.0703218,1.05434548 C9.87742036,1.04020846 9.73240225,0.872616826 9.74631121,0.679715354 C9.75999216,0.487041941 9.92689979,0.342023835 10.1200293,0.355704789 C10.2071313,0.361861232 12.2613265,0.520788293 13.1389597,1.7322367 C13.2522835,1.88888363 13.2173971,2.10777889 13.0605222,2.22133083 C12.9985019,2.26624995 12.9266768,2.28791141 12.8555359,2.28791141 Z" id="Path" fill="#FFF4C1" fill-rule="nonzero"></path>
                        <path d="M9.44555824,5.84176711 C9.34545925,5.84176711 9.24581632,5.79912812 9.17672755,5.7163584 L8.42518717,4.81729173 C8.30114653,4.66885337 8.32075586,4.44813399 8.46919422,4.32386534 C8.61763252,4.1998247 8.83835191,4.21966203 8.96239255,4.36810039 L9.71393292,5.26693906 C9.83797357,5.41537742 9.81836423,5.6363248 9.66992587,5.76036545 C9.6044853,5.81508926 9.52467976,5.84176711 9.44555824,5.84176711 Z" id="Path" fill="#FFCD00" fill-rule="nonzero"></path>
                    </g>
                </g>
            </g>
        </g>
    </g>
</svg>